<svg version="1.1" id="Layer_1" xmlns="http://www.w3.org/2000/svg" xmlns:xlink="http://www.w3.org/1999/xlink" x="0px" y="0px"
	 width="100%" viewBox="0 0 1024 1024" enable-background="new 0 0 1024 1024" xml:space="preserve">
<path fill="#000000" opacity="1.000000" stroke="none" 
	d="
M808.045776,502.695831 
	C795.954285,549.573364 766.449463,579.878845 721.843384,596.069458 
	C717.805176,597.535156 715.736023,599.806152 714.096008,603.612427 
	C695.915588,645.806458 664.153625,672.040222 619.386841,681.556152 
	C596.467773,686.428040 573.981995,682.867798 552.845398,672.241333 
	C551.272156,671.450317 549.848633,670.112244 547.298035,670.411621 
	C550.755066,683.837646 554.182190,697.135010 557.602417,710.434143 
	C560.790771,722.831604 563.907288,735.248169 567.195312,747.619141 
	C568.186584,751.348694 567.656494,753.681152 563.751526,755.540466 
	C548.865906,762.628296 534.101196,769.975769 519.396179,777.433167 
	C515.032288,779.646240 511.223663,779.871887 506.720093,777.580200 
	C492.471069,770.329407 478.116119,763.271179 463.620453,756.529236 
	C458.756256,754.266907 457.539307,751.588074 458.801178,746.414612 
	C464.436279,723.312012 469.725647,700.124939 475.111115,676.961670 
	C475.555603,675.049866 475.784790,673.088074 476.253906,670.325684 
	C472.784332,671.945190 470.031311,673.328735 467.202850,674.535400 
	C436.366364,687.690735 405.910614,686.426331 375.954163,671.775574 
	C346.090637,657.170288 323.842804,635.073486 310.862549,604.207092 
	C308.842407,599.403259 306.043274,596.529297 300.952209,594.787231 
	C270.892609,584.501221 248.036545,565.277039 231.707275,538.082764 
	C207.123672,497.142059 210.991623,452.066315 242.225693,415.889160 
	C248.874557,408.188019 256.055084,401.075989 264.725220,394.587036 
	C260.912689,391.296722 257.399780,388.360260 253.991135,385.307404 
	C235.473282,368.722107 222.639175,348.728241 217.684067,324.114685 
	C212.067047,296.213287 218.435867,270.624817 233.073105,246.756409 
	C249.458405,220.037537 272.418640,201.412842 302.172852,191.374207 
	C305.657776,190.198456 307.606842,188.298401 308.832153,184.783981 
	C320.407623,151.582565 342.032928,127.037064 373.343964,111.168999 
	C413.402802,90.867661 458.091461,97.635246 490.623169,128.767197 
	C494.706909,132.675232 498.614685,136.815002 502.208771,141.173325 
	C505.788452,145.514206 508.870453,150.265518 512.331482,155.059570 
	C514.525574,153.840042 515.324524,151.547333 516.585632,149.724182 
	C532.367493,126.908821 552.747620,110.162575 579.879272,102.877342 
	C610.713989,94.597778 638.838135,101.748077 664.951538,119.017776 
	C688.763062,134.765213 706.089844,155.767471 715.902649,182.630219 
	C717.955872,188.251022 721.410583,190.904221 726.760193,192.956619 
	C767.035950,208.408722 794.074707,236.956192 806.207764,278.145142 
	C815.815308,310.760529 808.433105,341.069855 787.700256,367.960358 
	C780.060242,377.869446 771.023743,386.477509 760.550781,394.352142 
	C794.869995,422.436493 816.326599,455.923035 808.045776,502.695831 
M647.692688,547.785278 
	C608.287537,498.786591 564.702637,453.591736 520.948486,408.552124 
	C520.325989,407.911377 519.703491,406.867889 518.397766,407.637726 
	C517.709167,410.681000 517.388550,413.794006 517.416626,416.975525 
	C517.609436,438.771118 517.825989,460.566986 517.883057,482.363129 
	C517.922668,497.501495 517.754211,512.640808 517.593628,527.778809 
	C517.565186,530.464783 518.491882,532.539307 520.240845,534.514709 
	C527.083862,542.243408 533.750427,550.129150 540.631226,557.823547 
	C571.167297,591.970154 603.061768,624.833557 635.068176,657.589539 
	C636.324768,658.875549 637.400024,660.435486 639.487427,661.088440 
	C640.203552,660.613403 641.047485,660.117310 641.822754,659.530334 
	C665.966919,641.250610 674.176941,612.137512 666.865173,582.709290 
	C663.611450,569.613708 656.368225,558.713989 647.692688,547.785278 
M366.301239,563.769714 
	C347.468323,594.247253 353.139496,633.864746 379.628174,656.868774 
	C385.485535,661.955566 385.759857,661.924377 391.294006,656.282898 
	C410.184998,637.025513 429.067322,617.761902 447.452942,598.015259 
	C466.518250,577.538757 485.390869,556.894287 503.466187,535.531860 
	C505.319031,533.342041 506.759735,531.205322 506.751068,528.028564 
	C506.646301,489.721924 506.684784,451.414948 506.639801,413.108063 
	C506.637817,411.410217 507.242798,409.396118 505.070435,408.079590 
	C501.571320,409.814362 499.316559,413.004791 496.690491,415.691742 
	C464.563995,448.562958 433.193787,482.142151 403.069672,516.862061 
	C390.201752,531.693115 377.386566,546.600769 366.301239,563.769714 
M285.261780,293.242706 
	C314.535431,324.262115 343.785339,355.303680 374.985229,384.430206 
	C377.274597,386.567444 379.498322,387.971222 382.841187,387.958038 
	C419.667633,387.812561 456.494629,387.806946 493.321411,387.729858 
	C494.909515,387.726532 496.706390,388.232971 498.150909,386.352722 
	C497.807434,384.201538 495.982391,382.889496 494.524902,381.389740 
	C476.178619,362.511688 457.737396,343.725342 439.463623,324.777466 
	C415.148010,299.564911 389.717224,275.557831 362.471924,253.532639 
	C353.495728,246.276245 343.550995,240.412338 332.497192,236.817627 
	C304.295135,227.646225 278.311981,231.942123 254.796524,250.159103 
	C249.495544,254.265701 249.470444,254.583054 253.858154,259.370026 
	C264.101898,270.545929 274.459442,281.617493 285.261780,293.242706 
M751.020081,238.513596 
	C724.505188,227.683685 699.220642,230.948105 674.967407,245.280182 
	C662.265625,252.786118 651.415710,262.723633 640.512878,272.490692 
	C601.387146,307.540710 565.570129,345.939789 528.857117,383.429047 
	C527.789734,384.518982 526.078613,385.394348 526.628784,387.601105 
	C527.478027,387.671875 528.298279,387.799561 529.118652,387.800018 
	C567.107666,387.821503 605.096802,387.814453 643.085693,387.885132 
	C645.464050,387.889557 647.221436,387.046509 648.867126,385.494843 
	C654.321228,380.352631 659.913635,375.353668 665.278625,370.121002 
	C695.102051,341.033234 723.654236,310.713257 752.118958,280.310577 
	C759.947754,271.948853 767.695435,263.511230 775.726074,254.843216 
	C768.450012,247.560349 760.475403,242.618332 751.020081,238.513596 
M558.900146,432.611877 
	C569.364136,443.351868 579.797729,454.121643 590.298157,464.825867 
	C613.747803,488.730652 636.759583,513.104309 662.445129,534.682800 
	C685.891785,554.380432 712.432129,561.875977 742.544495,553.690369 
	C755.301819,550.222412 766.225159,543.570801 775.691650,534.120483 
	C774.814270,532.987610 774.281189,532.150024 773.606201,531.449097 
	C732.231445,488.481293 690.838440,445.530945 649.476807,402.550415 
	C647.133728,400.115570 644.533875,399.022614 641.081177,399.032349 
	C605.419373,399.132782 569.757080,399.094727 534.095032,399.152924 
	C532.207703,399.156006 530.144714,398.616058 527.939026,400.275848 
	C538.197021,410.966156 548.322327,421.518127 558.900146,432.611877 
M295.621277,486.118774 
	C280.264923,501.953857 264.908569,517.788940 249.356293,533.826050 
	C251.499817,535.814331 252.986115,537.389465 254.665573,538.721008 
	C277.557465,556.871948 303.194611,561.296631 330.888031,552.983948 
	C348.899261,547.577576 362.932037,535.623901 376.339996,522.972595 
	C416.834900,484.763092 454.386597,443.665009 493.220367,403.825531 
	C494.294373,402.723663 495.876099,401.760406 495.707886,399.756744 
	C493.593353,398.740143 491.404175,399.165039 489.290375,399.162537 
	C454.634155,399.121857 419.977325,399.210907 385.322266,399.002808 
	C380.544373,398.974152 377.270691,400.458160 374.038300,403.871552 
	C348.154480,431.204407 322.111633,458.386627 295.621277,486.118774 
M517.937439,338.432983 
	C517.992249,351.501190 516.572815,364.609192 518.934509,378.058441 
	C520.900208,376.969360 521.854797,375.366425 523.119324,374.064484 
	C543.306519,353.280121 563.551208,332.551605 583.746399,311.775024 
	C607.074524,287.775208 630.667480,264.010651 652.554321,238.668854 
	C675.856812,211.687958 680.451294,174.946869 664.640869,145.609695 
	C662.600342,141.823441 660.483643,138.040070 656.199768,135.467651 
	C654.028198,137.539932 651.783875,139.492172 649.754333,141.646805 
	C620.644592,172.550980 591.554626,203.473709 562.480347,234.411240 
	C548.684448,249.091278 534.955872,263.834686 521.135498,278.491669 
	C518.951294,280.808197 517.875427,283.277222 517.894287,286.521179 
	C517.993103,303.497864 517.934265,320.475403 517.937439,338.432983 
M445.109344,315.391693 
	C465.241608,336.027344 485.373871,356.662994 505.913513,377.716187 
	C506.355347,376.253937 506.612701,375.798828 506.613342,375.343323 
	C506.656860,345.024628 506.665253,314.705902 506.733795,284.387268 
	C506.738831,282.150604 505.641235,280.665710 504.237946,279.175690 
	C460.616119,232.859314 417.010864,186.527328 373.375885,140.223373 
	C371.812408,138.564255 370.421722,136.608734 367.974396,135.789459 
	C365.130707,137.706497 363.348907,140.551010 361.669556,143.367920 
	C355.234894,154.161377 351.952820,165.967880 351.364960,178.450302 
	C350.268860,201.724274 358.126892,221.960831 373.215240,239.395325 
	C395.898651,265.605804 420.400208,290.114258 445.109344,315.391693 
M390.601074,120.171700 
	C387.860199,121.380600 385.087921,122.523598 382.384827,123.811859 
	C376.424408,126.652496 376.183044,127.867813 380.776459,132.736816 
	C394.722870,147.519821 408.744965,162.231445 422.677643,177.027344 
	C448.944794,204.921967 475.161835,232.863770 501.435944,260.751862 
	C502.819824,262.220764 504.023346,264.080780 506.617401,264.848175 
	C506.617401,236.555405 506.690643,208.748032 506.534851,180.941940 
	C506.512634,176.971237 505.024292,173.158203 502.929993,169.635422 
	C498.061432,161.446075 492.449005,153.801666 486.343048,146.511566 
	C462.301636,117.807915 423.659851,106.989563 390.601074,120.171700 
M623.526855,154.042694 
	C631.829102,145.291809 640.131348,136.540924 648.804260,127.399330 
	C646.427246,125.946350 644.812622,124.795372 643.062134,123.914635 
	C624.831726,114.742599 605.746765,112.425201 585.862915,117.014671 
	C561.998962,122.522789 545.110718,137.479843 530.666260,156.491974 
	C521.650940,168.358185 517.448242,180.722610 517.847961,195.715881 
	C518.401978,216.494263 518.592346,237.332993 517.431824,258.132660 
	C517.308411,260.344910 516.861633,262.776978 519.123291,265.199493 
	C553.825806,228.247742 588.431030,191.399536 623.526855,154.042694 
M746.624023,488.877838 
	C758.486511,500.646851 769.358643,513.417114 782.248413,525.018250 
	C791.539673,508.110291 795.588257,490.897034 793.198059,472.490509 
	C789.701050,445.561127 774.703613,425.603516 753.887756,409.395508 
	C744.544434,402.120453 734.313782,398.352356 722.012024,398.906128 
	C704.065247,399.713959 686.055420,399.098999 668.072693,399.165558 
	C666.185669,399.172546 664.124573,398.568329 661.907471,400.248840 
	C690.075378,429.707581 718.113037,459.030060 746.624023,488.877838 
M275.373871,406.892365 
	C246.639236,427.974274 228.967575,454.674500 232.326920,491.971802 
	C233.368668,503.537781 237.147415,514.209045 243.585510,525.281677 
	C283.592163,483.292877 323.022705,441.908783 362.453217,400.524689 
	C362.148621,400.069244 361.843994,399.613800 361.539368,399.158356 
	C359.562714,399.158356 357.586029,399.161346 355.609375,399.157928 
	C337.128052,399.126007 318.638367,399.410187 300.168915,398.925690 
	C291.013519,398.685516 283.134277,401.075684 275.373871,406.892365 
M356.959137,387.787567 
	C358.328003,387.547913 359.989807,388.397003 361.379669,386.120422 
	C320.658600,346.958801 282.287201,305.329437 243.204346,263.703461 
	C241.855072,265.744110 241.017395,266.775177 240.430969,267.933441 
	C232.352280,283.889679 230.090988,300.810852 232.755890,318.339813 
	C236.654556,343.984192 250.842194,363.357056 270.905060,378.820343 
	C278.976440,385.041290 287.911224,388.430908 298.645081,388.037567 
	C317.768433,387.336731 336.934723,387.806244 356.959137,387.787567 
M769.155457,277.648071 
	C734.365295,314.522186 700.045288,351.848877 662.531067,387.405945 
	C664.599915,387.602081 665.543945,387.769135 666.488037,387.769745 
	C688.806091,387.783905 711.124146,387.773773 733.442200,387.789093 
	C735.817871,387.790741 738.039368,387.228119 740.241089,386.391754 
	C752.754761,381.638123 762.300903,372.918793 771.137024,363.271393 
	C794.772278,337.466309 800.755676,298.150696 785.474487,268.965271 
	C784.601990,267.298798 784.218933,265.060455 781.643005,264.590149 
	C776.958923,268.070160 773.808411,273.097321 769.155457,277.648071 
M570.642151,666.858093 
	C589.800171,674.115479 608.905273,674.909912 629.110107,666.712341 
	C591.318604,627.931885 554.471985,589.692627 519.335693,549.573608 
	C517.718689,551.645569 518.052612,553.026733 518.030884,554.311401 
	C517.717773,572.790405 518.450012,591.279236 517.488281,609.753479 
	C517.355042,612.313110 518.297485,614.725464 519.418945,616.922974 
	C530.725525,639.079529 546.387817,656.846008 570.642151,666.858093 
M445.291718,669.755310 
	C473.872101,661.273743 492.569672,641.759644 505.502319,615.813049 
	C506.491333,613.828796 506.706543,611.712097 506.701599,609.511780 
	C506.659271,590.702454 506.678223,571.893005 506.609619,553.083801 
	C506.605469,551.949890 507.328583,550.476746 505.452881,549.379211 
	C470.538910,589.697266 433.701721,628.234497 395.606537,666.864807 
	C412.419556,673.721313 428.306213,674.167175 445.291718,669.755310 
M544.148132,736.249878 
	C545.746948,736.992432 547.101685,738.463135 549.132141,737.978333 
	C550.123840,736.463501 549.364563,735.067505 548.996765,733.649841 
	C547.245483,726.900085 545.545837,720.136780 543.753052,713.398132 
	C538.803162,694.792358 533.883911,676.177856 528.800964,657.608276 
	C527.331482,652.239807 523.342407,649.348328 517.870117,647.620544 
	C517.641724,649.026306 517.400696,649.820923 517.399719,650.615784 
	C517.371887,673.063416 517.407288,695.511292 517.317383,717.958557 
	C517.304443,721.200378 519.122864,722.670471 521.607666,723.996094 
	C528.940125,727.908142 536.226807,731.906006 544.148132,736.249878 
M505.581543,649.189880 
	C497.657043,649.882874 494.951233,655.326294 493.370483,662.148865 
	C488.871338,681.567688 484.100677,700.923828 479.626312,720.348206 
	C478.315308,726.039673 476.529297,731.710815 476.474060,738.846130 
	C485.700409,733.680298 494.005981,728.873840 502.472168,724.369202 
	C505.709625,722.646606 506.796509,720.414978 506.771667,716.821960 
	C506.629028,696.182007 506.707764,675.540588 506.669373,654.899719 
	C506.666016,653.098511 507.030792,651.233643 505.581543,649.189880 
M529.629761,756.086060 
	C534.548706,753.564758 539.467651,751.043457 545.505005,747.948914 
	C535.449646,743.169189 527.328369,737.843262 517.711731,734.142029 
	C517.711731,743.796509 517.711731,752.342041 517.711731,761.779175 
	C521.884460,759.798828 525.427979,758.117065 529.629761,756.086060 
M506.863037,756.914124 
	C506.863037,749.704773 506.863037,742.495422 506.863037,734.414673 
	C497.171783,738.683960 489.112091,743.231506 480.494019,748.519470 
	C488.537262,752.527466 495.650543,756.077820 502.769867,759.616028 
	C504.875641,760.662659 506.679657,760.985168 506.863037,756.914124 
z"/>
</svg>
